<svg width="16" height="18" viewBox="0 0 16 18" xmlns="http://www.w3.org/2000/svg">
<path fill-rule="evenodd" clip-rule="evenodd" d="M11.5563 17.3327C12.6643 17.3327 13.4081 16.6367 13.4623 15.5665L13.9969 4.68488H14.9267C15.2443 4.68488 15.5 4.42294 15.5 4.1161C15.5 3.80926 15.2443 3.55481 14.9267 3.55481H11.3858V2.43222C11.3858 1.35454 10.6343 0.666016 9.44112 0.666016H6.54339C5.35021 0.666016 4.6064 1.35454 4.6064 2.43222V3.55481H1.07335C0.76343 3.55481 0.5 3.81674 0.5 4.1161C0.5 4.42294 0.76343 4.68488 1.07335 4.68488H2.01085L2.54545 15.574C2.59969 16.6442 3.328 17.3327 4.45145 17.3327H11.5563ZM10.1539 3.5548H5.84608V2.50706C5.84608 2.08047 6.16374 1.78112 6.63636 1.78112H9.35589C9.82851 1.78112 10.1539 2.08047 10.1539 2.50706V3.5548ZM11.4323 16.2026H4.55992C4.11829 16.2026 3.78512 15.8808 3.76188 15.4393L3.21953 4.68488H12.7572L12.2459 15.4393C12.2226 15.8883 11.8972 16.2026 11.4323 16.2026ZM10.3011 14.8929C10.5568 14.8929 10.7428 14.6909 10.7505 14.4065L10.9829 6.55586C10.9907 6.27896 10.797 6.06941 10.5336 6.06941C10.2934 6.06941 10.0919 6.28644 10.0842 6.55586L9.85174 14.399C9.84399 14.6759 10.0377 14.8929 10.3011 14.8929ZM5.70661 14.8929C5.97004 14.8929 6.16374 14.6759 6.156 14.399L5.91581 6.55586C5.90806 6.28644 5.70661 6.06941 5.46643 6.06941C5.203 6.06941 5.0093 6.27896 5.01705 6.55586L5.24949 14.4065C5.25723 14.6909 5.44318 14.8929 5.70661 14.8929ZM7.99999 14.8929C8.25567 14.8929 8.47261 14.6759 8.47261 14.4065V6.55586C8.47261 6.28644 8.25567 6.06941 7.99999 6.06941C7.75206 6.06941 7.53511 6.28644 7.53511 6.55586V14.4065C7.53511 14.6759 7.75206 14.8929 7.99999 14.8929Z"/>
</svg>
