<?xml version="1.0" encoding="utf-8"?><svg viewBox="0 0 28 27" xmlns="http://www.w3.org/2000/svg" xmlns:xlink="http://www.w3.org/1999/xlink"><style>:root>svg{display:none}:root>svg:target{display:block}</style><svg viewBox="0 0 24 25" id="cart" xmlns="http://www.w3.org/2000/svg"><path d="M5.944 6.32c.58-2.868 3.104-5.026 6.13-5.026s5.55 2.158 6.13 5.026M.774 6.593h22.6v17.026H.774z"/></svg><svg viewBox="0 0 24 24" stroke-width="2" stroke-linecap="round" stroke-linejoin="round" id="dcr" xmlns="http://www.w3.org/2000/svg"><path d="M5 12h14"/></svg><svg viewBox="0 0 12 22" id="fb" xmlns="http://www.w3.org/2000/svg"><path d="M8.832.571c-3.136 0-5.284 1.73-5.284 4.906v2.737H0v3.713h3.548v9.522h4.24v-9.522h3.539l.531-3.713h-4.07v-2.37c0-1.075.332-1.808 2.037-1.808H12V.718C11.624.672 10.334.571 8.832.571z"/></svg><svg viewBox="0 0 24 24" stroke-width="2" stroke-linecap="round" stroke-linejoin="round" id="incr" xmlns="http://www.w3.org/2000/svg"><path d="M12 5v14M5 12h14"/></svg><svg viewBox="0 0 23 24" id="insta" xmlns="http://www.w3.org/2000/svg"><path d="M6.657.673C2.986.673 0 3.64 0 7.283v9.558c0 3.644 2.986 6.608 6.657 6.608h9.686c3.671 0 6.657-2.964 6.657-6.608V7.283c0-3.644-2.986-6.61-6.657-6.61H6.657zm0 1.958h9.686c2.613 0 4.686 2.058 4.686 4.652v9.558c0 2.593-2.073 4.65-4.686 4.65H6.657c-2.613 0-4.685-2.056-4.685-4.65V7.283c0-2.594 2.072-4.652 4.685-4.652zM17.673 4.59c-.762 0-1.38.613-1.38 1.37 0 .756.618 1.368 1.38 1.368.762 0 1.379-.612 1.379-1.369 0-.756-.617-1.369-1.38-1.369zM11.5 6.197c-3.251 0-5.907 2.637-5.907 5.864s2.656 5.864 5.907 5.864 5.909-2.637 5.909-5.864-2.658-5.864-5.909-5.864zm0 1.958c2.185 0 3.937 1.737 3.937 3.906 0 2.17-1.752 3.906-3.937 3.906-2.185 0-3.935-1.737-3.935-3.906 0-2.17 1.75-3.906 3.935-3.906z"/></svg><svg viewBox="0 0 22 24" id="search" xmlns="http://www.w3.org/2000/svg"><circle r="8.18" transform="matrix(-1 0 0 1 12.627 9.768)"/><path d="M.915 22.763l6.073-6.073"/></svg><svg viewBox="0 0 16 18" id="trash" xmlns="http://www.w3.org/2000/svg"><path fill-rule="evenodd" clip-rule="evenodd" d="M11.556 17.333c1.108 0 1.852-.696 1.906-1.766l.535-10.882h.93a.575.575 0 00.573-.569.569.569 0 00-.573-.561h-3.541V2.432c0-1.077-.752-1.766-1.945-1.766H6.543c-1.193 0-1.937.689-1.937 1.766v1.123H1.073a.579.579 0 00-.573.561.58.58 0 00.573.569h.938l.534 10.889c.055 1.07.783 1.759 1.906 1.759h7.105zM10.154 3.555H5.846V2.507c0-.427.318-.726.79-.726h2.72c.473 0 .798.3.798.726v1.048zm1.278 12.648H4.56a.782.782 0 01-.798-.764L3.22 4.685h9.537l-.511 10.754c-.023.45-.349.764-.814.764zm-1.13-1.31c.255 0 .44-.202.449-.487l.232-7.85c.008-.277-.186-.487-.45-.487-.24 0-.441.217-.449.487l-.232 7.843c-.008.277.186.494.45.494zm-4.595 0c.263 0 .457-.217.449-.494l-.24-7.843c-.008-.27-.21-.487-.45-.487-.263 0-.457.21-.449.487l.232 7.85c.008.285.194.487.458.487zm2.293 0a.483.483 0 00.473-.487v-7.85A.483.483 0 008 6.069a.481.481 0 00-.465.487v7.85c0 .27.217.487.465.487z"/></svg><svg viewBox="0 0 22 18" id="tw" xmlns="http://www.w3.org/2000/svg"><path d="M22 2.39a9.354 9.354 0 01-2.592.679A4.368 4.368 0 0021.392.683a9.283 9.283 0 01-2.866 1.046A4.607 4.607 0 0015.232.367c-2.493 0-4.513 1.931-4.513 4.313 0 .338.04.667.117.982-3.751-.18-7.077-1.897-9.303-4.505a4.145 4.145 0 00-.611 2.167c0 1.497.796 2.816 2.008 3.59a4.65 4.65 0 01-2.045-.54v.055c0 2.09 1.555 3.832 3.62 4.228a4.71 4.71 0 01-2.038.074c.575 1.713 2.241 2.96 4.216 2.995a9.331 9.331 0 01-5.606 1.846A9.67 9.67 0 010 15.512a13.215 13.215 0 006.92 1.937c8.3 0 12.84-6.57 12.84-12.27 0-.187-.005-.372-.013-.557a8.974 8.974 0 002.252-2.233"/></svg><svg viewBox="0 0 24 24" id="user" xmlns="http://www.w3.org/2000/svg"><circle cx="12.312" cy="6.914" r="5.973"/><path d="M1.524 22.36c1.02-5.035 5.462-8.826 10.788-8.826 5.325 0 9.768 3.79 10.788 8.827"/></svg><svg viewBox="0 0 28 27" id="wish" xmlns="http://www.w3.org/2000/svg"><path d="M13.932 23.601c-.028-.174-11.98-9.414-11.98-14.32-.247-2.944 1.381-5.817 4.159-6.919 2.94-1.166 6.195.043 7.82 2.717M13.991 23.601c.028-.174 11.98-9.414 11.98-14.32.248-2.944-1.381-5.817-4.158-6.919-2.941-1.166-6.195.043-7.822 2.717"/></svg></svg>